<?xml version="1.0" encoding="UTF-8"?><svg id="a" xmlns="http://www.w3.org/2000/svg" viewBox="0 0 16.9 15.02"><path d="M1.59,8.94v.78c0,.19-.15.35-.39.35-.19,0-.38-.1-.38-.38v-.72l.21-.03v.72c0,.09.02.21.18.21.15,0,.17-.1.17-.23v-.68l.21-.03Z" fill="#236192"/><polygon points="2.23 10.07 2.23 8.94 2.24 8.94 2.88 9.6 2.88 8.97 3.09 8.94 3.09 10.07 3.09 10.07 2.44 9.43 2.44 10.05 2.23 10.07" fill="#236192"/><polygon points="3.74 10.06 3.74 8.97 3.95 8.94 3.95 10.05 3.74 10.06" fill="#236192"/><polygon points="4.92 9.62 5.19 8.94 5.4 8.97 4.93 10.08 4.92 10.08 4.46 8.97 4.68 8.94 4.92 9.62" fill="#236192"/><polygon points="5.91 10.05 5.91 8.97 6.49 8.97 6.52 9.17 6.11 9.17 6.11 9.38 6.44 9.38 6.44 9.59 6.11 9.59 6.11 9.85 6.57 9.85 6.51 10.05 5.91 10.05" fill="#236192"/><path d="M7.13,8.97h.35c.21,0,.37.1.37.33,0,.13-.08.24-.21.28l.29.43-.23.06-.37-.56h0v.54h-.21s0-1.08,0-1.08ZM7.34,9.46h.08c.1,0,.2-.03.2-.15s-.09-.14-.2-.14h-.08v.29Z" fill="#236192"/><path d="M8.53,9.76c.05.06.09.12.21.12.07,0,.14-.06.14-.12,0-.21-.47-.09-.47-.48,0-.21.15-.33.37-.33.11,0,.24.06.3.15l-.13.15c-.05-.05-.13-.1-.19-.1-.07,0-.14.03-.14.13,0,.18.47.05.47.48,0,.2-.16.32-.37.32-.14,0-.25-.06-.34-.17l.14-.15Z" fill="#236192"/><polygon points="9.69 10.06 9.69 8.97 9.9 8.94 9.9 10.05 9.69 10.06" fill="#236192"/><polygon points="10.48 8.97 11.2 8.97 11.2 9.17 10.93 9.17 10.93 10.05 10.72 10.06 10.72 9.17 10.43 9.17 10.48 8.97" fill="#236192"/><polygon points="11.66 9 11.86 8.94 12.11 9.44 12.32 8.94 12.53 9 12.05 10.08 11.83 10.03 12.01 9.66 11.66 9" fill="#236192"/><path d="M14.4,8.95c.31,0,.57.25.57.56s-.26.56-.57.56-.57-.25-.57-.56.26-.56.57-.56M14.4,9.86c.19,0,.35-.16.35-.35s-.16-.35-.35-.35-.35.16-.35.35.16.35.35.35" fill="#236192"/><polygon points="15.56 8.97 16.11 8.97 16.16 9.17 15.77 9.17 15.77 9.42 16.06 9.42 16.06 9.62 15.77 9.62 15.77 10.05 15.56 10.08 15.56 8.97" fill="#236192"/><path d="M.75,12.83l1.21-2.44h0l1.25,2.44-.49.07-.29-.61h-.92l-.28.61-.49-.07ZM1.7,11.89h.54l-.28-.65-.26.65Z" fill="#236192"/><polygon points="3.92 12.85 3.92 10.45 4.38 10.39 4.38 12.4 5.25 12.4 5.14 12.85 3.92 12.85" fill="#236192"/><path d="M5.78,12.83l1.21-2.44h0l1.25,2.44-.49.07-.29-.61h-.92l-.28.61-.49-.07ZM6.73,11.89h.54l-.28-.65-.26.65Z" fill="#236192"/><path d="M9.12,12.2c.12.13.2.26.46.26.16,0,.31-.13.31-.28,0-.48-1.05-.21-1.05-1.06,0-.46.34-.73.82-.73.24,0,.53.13.67.33l-.29.34c-.11-.12-.28-.22-.41-.22-.16,0-.31.07-.31.29,0,.41,1.05.12,1.05,1.06,0,.44-.36.72-.81.72-.3,0-.55-.13-.76-.37l.32-.33Z" fill="#236192"/><polygon points="12.57 10.39 13.01 10.57 12.24 11.57 13.04 12.73 12.56 12.9 11.72 11.61 11.72 11.61 11.72 12.85 11.26 12.88 11.26 10.45 11.72 10.39 11.72 11.5 11.72 11.5 12.57 10.39" fill="#236192"/><path d="M13.58,12.83l1.21-2.44h0l1.25,2.44-.49.07-.29-.61h-.92l-.28.61-.49-.07ZM14.52,11.89h.54l-.28-.65-.26.65Z" fill="#236192"/><polygon points=".79 13.48 1.4 13.48 1.45 13.71 1.02 13.71 1.02 13.98 1.34 13.98 1.34 14.2 1.02 14.2 1.02 14.68 .79 14.71 .79 13.48" fill="#236192"/><path d="M2.2,14.67l.6-1.22h0l.63,1.22-.25.04-.14-.3h-.46l-.14.3-.24-.04ZM2.67,14.2h.27l-.14-.33-.13.33Z" fill="#236192"/><polygon points="4.4 14.7 4.4 13.48 4.63 13.46 4.63 14.68 4.4 14.7" fill="#236192"/><path d="M5.75,13.48h.38c.23,0,.41.11.41.37,0,.15-.09.27-.23.31l.33.48-.25.06-.41-.63h0v.6h-.23s0-1.2,0-1.2ZM5.98,14.03h.08c.11,0,.22-.03.22-.17s-.1-.15-.22-.15h-.09v.32Z" fill="#236192"/><path d="M7.61,13.48h.41c.29,0,.35.22.35.33s-.06.2-.16.25c.13.05.22.15.22.29,0,.18-.14.33-.37.33h-.45v-1.2ZM7.84,13.98h.13c.09,0,.15-.06.15-.13s-.06-.13-.15-.13h-.13v.27ZM7.84,14.46h.12c.16,0,.21-.05.21-.15s-.06-.15-.21-.15h-.12v.3Z" fill="#236192"/><path d="M9.3,14.67l.6-1.22h0l.63,1.22-.25.04-.14-.3h-.46l-.14.3-.24-.04ZM9.77,14.2h.27l-.14-.33-.13.33Z" fill="#236192"/><polygon points="11.49 14.71 11.49 13.46 11.49 13.46 12.21 14.18 12.21 13.48 12.44 13.46 12.44 14.71 12.44 14.71 11.72 13.99 11.72 14.68 11.49 14.71" fill="#236192"/><polygon points="14.21 13.46 14.43 13.55 14.04 14.05 14.44 14.63 14.2 14.71 13.78 14.06 13.78 14.06 13.78 14.68 13.55 14.7 13.55 13.48 13.78 13.46 13.78 14.01 13.78 14.01 14.21 13.46" fill="#236192"/><path d="M15.5,14.36c.06.07.1.13.23.13.08,0,.15-.06.15-.14,0-.24-.52-.1-.52-.53,0-.23.17-.37.41-.37.12,0,.26.07.34.16l-.14.17c-.06-.06-.14-.11-.21-.11-.08,0-.15.03-.15.15,0,.2.52.06.52.53,0,.22-.18.36-.41.36-.15,0-.28-.06-.38-.19l.16-.16Z" fill="#236192"/><polygon points="13.61 8.19 12.27 8.19 10.99 4.06 10.99 .41 16.38 .41 16.38 2.13 13.63 2.13 13.63 2.81 15.74 2.81 15.74 4.56 13.61 4.56 13.61 8.19" fill="#236192"/><path d="M13.69,8.28h-1.49l-1.3-4.22V.32h5.57v1.9h-2.76v.51h2.11v1.92h-2.13v3.63ZM12.33,8.1h1.19v-3.63h2.13v-1.57h-2.11v-.86h2.76V.49h-5.22v3.55l1.26,4.06Z" fill="#fff"/><path d="M2.96.4v5.14s-.03.34.26.34c.32,0,.29-.34.29-.34V.4s2.41,0,2.41,0v3.49l-1.45,4.29h.19c-.33.06-.74.09-1.27.09-2.73,0-2.87-.89-2.87-.89V.4h2.44Z" fill="#236192"/><path d="M3.39,8.36c-2.77,0-2.95-.92-2.96-.96h0V.31h2.62v5.23s0,.15.06.21c.03.03.06.04.12.04.07,0,.11-.02.15-.05.06-.07.06-.19.06-.19V.31s2.58,0,2.58,0v3.59l-1.42,4.19h.07v.17c-.35.06-.78.09-1.27.09M.6,7.38c.02.06.29.81,2.79.81.37,0,.71-.02,1-.05l1.44-4.26V.49h-2.24v5.05s.02.19-.1.32c-.07.07-.16.11-.28.11-.1,0-.18-.03-.24-.1-.12-.12-.1-.32-.1-.34V.49H.6v6.89Z" fill="#fff"/><polygon points="4.47 8.19 12.24 8.19 9.82 .41 7.1 .41 4.47 8.19" fill="#236192"/><path d="M12.36,8.28H4.35S7.03.32,7.03.32h2.85l2.48,7.96ZM4.59,8.1h7.53S9.76.5,9.76.5h-2.6l-2.56,7.6Z" fill="#fff"/><path d="M10.65,7.74h1.16l-.07-.22h-1.05c.02-.11.04-.23.06-.36h.88l-.07-.22h-.78c.01-.12.03-.24.04-.36h.63l-.07-.22h-.55c.02-.44,0-.86-.15-1.09-.49-.78-1.58-1.04-2.13-1.22l-.06.23-.2-.08.06-.23c.09-.26.03-.45.59-.4.05-.05.18-.31.15-.37-.15-.08-.53-.16-.53-.16,0,0-.08-.11-.18-.15-.22-.09-.46-.11-.71,0-.03-.01-.13-.06-.21-.02-.14.07-.11.17-.11.18-.03.02-.03.03-.05.06-.16.17-.27.36-.36.57-.02.04-.21.43-.29.73-.15.59-.15,1.05,0,1.55.04.14.06.28.08.41h-1.35l-.08.22h1.46c.03.12.07.24.14.36h-1.73l-.08.22h1.97c.07.09.16.19.23.27.18-.09.29-.23.36-.44l-.12-.88-.13-.08.16-.18.16.13.13,1.03c-.07.22-.15.38-.29.49h-2.6l-.08.22h2.19l-1.18.45h5.27l-.58-.24s.02-.07.04-.19M9.2,7.52l.18-.34-.08-.37-.44-.18c-.05.25-.13.51-.24.79l-.23.02c.26-.61.37-1.2.33-1.79l.2.03c.02.26,0,.51-.03.74l.58.24.2,1.01-.48-.16Z" fill="#fff" fill-rule="evenodd"/></svg>